<svg xmlns="http://www.w3.org/2000/svg" xmlns:xlink="http://www.w3.org/1999/xlink" xmlns:sketch="http://www.bohemiancoding.com/sketch/ns" width="1151px" height="561px" viewBox="0 0 1151 561" version="1.1"><style>.style0{fill:	none;fill-rule:	evenodd;}.style1{fill:	#404F54;}</style><!-- Generator: Sketch 3.0.3 (7891) - http://www.bohemiancoding.com/sketch --><title>USA USA USA</title><desc>Created with Sketch.</desc><defs/><g sketch:type="MSPage" class="style0"><g sketch:type="MSArtboardGroup" transform="translate(-55.000000, -2907.000000)" class="style1"><g sketch:type="MSLayerGroup" transform="translate(0.000000, 2827.000000)"><g sketch:type="MSShapeGroup"><path d="M855.4 150.6 C854.9 148.8 854.1 149 851.9 149 C852.4 150.1 852.9 151 853.6 151.8 C853.9 152 854.2 152.3 854.5 152.5 C854.8 152.2 855.8 151.8 855.4 150.6 "/><path d="M863.8 158.2 C864.1 160.2 864.5 161.8 865.6 162 C865.9 162.1 866.5 162.1 867.2 162.2 C868.1 162.3 869.4 162.4 870.6 162.6 C870 161.4 866.2 159.8 863.8 158.2 "/><path d="M146.3 443.4 C144.4 442.9 144.1 442.2 143.4 443.3 C142.7 444.4 143.2 447.8 143.9 448.5 C144.5 449.3 148.1 447.1 148.5 446.2 C149 445.4 148 444.4 146.3 443.4 "/><path d="M1143 276.2 C1141.6 277.2 1139.9 278.5 1141.5 279.3 C1143.1 280 1144.5 281.6 1145.4 280.2 C1146.3 278.9 1145.8 276.4 1145.5 276.4 C1145.1 276.3 1144.2 275.9 1143 276.2 "/><path d="M153.5 443 C154 445.3 154.2 446.7 155.7 446.6 C157.2 446.5 161.8 446.5 162.3 445.7 C162.8 444.8 154.1 439.5 153.5 443 "/><path d="M177.7 467.1 C177.5 468.2 178.4 470.8 179.3 471.1 C180.1 471.4 183.2 471.4 183.5 470.8 C183.9 469.7 178.2 464.4 177.7 467.1 "/><path d="M1099 284.3 C1098.4 283.1 1101.1 280.7 1099.4 280.8 C1097.8 280.9 1096.9 282.4 1093.2 283.9 C1089.5 285.4 1086.8 286.4 1083.7 286.3 C1080.5 286.2 1078.5 283.8 1074.8 287 C1073.5 288.9 1070.9 289.5 1070.6 290.8 C1070.3 292.1 1067.3 293.4 1071 293.6 C1074.6 293.8 1077.3 292.9 1079.1 292.2 C1080.9 291.6 1084.9 290.9 1088.4 290.3 C1091.8 289.8 1092.8 289.5 1096.5 287.9 C1100.1 286.3 1106.6 285.1 1107 284 C1107.4 282.8 1099.5 285.4 1099 284.3 "/><path d="M1132.7 274.1 C1130 275.7 1127.2 277 1128 277.5 C1128.9 278 1132.2 277.2 1133.3 277.2 C1134.3 277.2 1135.8 278.1 1135.9 276.4 C1136 274.7 1134.4 273 1132.7 274.1 "/><path d="M1205.3 187.2 C1204.4 186 1203.4 184.6 1203.2 184.5 L1203.2 184.5 C1203 184.3 1200.1 184.3 1199.5 184.2 C1198.8 184.1 1198.2 184 1197.6 183.7 C1196.1 182.7 1196.2 178.3 1196.3 175.4 C1196.3 175 1196.3 174.5 1196.3 174 C1196.3 173.3 1194.9 172.9 1193.6 172.6 C1192.6 172.3 1191.2 172.1 1190.5 171.7 C1189 170.8 1189.4 161.3 1189.4 152.2 C1189.4 144.9 1189.3 137.8 1188.9 137.3 C1188.1 136.3 1186 134.5 1183.9 133.1 C1182.3 132 1180.9 131.2 1180.2 131.2 C1179.6 131.2 1178.3 131.7 1176.9 132.2 C1174.4 133.3 1171.5 134.7 1170.5 135.3 C1168.3 136.4 1166.4 134.3 1165.4 133.2 L1165.4 133.2 L1165.4 133.1 L1165.4 133.1 C1164.7 132.3 1164.7 131.3 1164.8 130.3 L1164.8 130.3 C1164.8 129.8 1164.8 129.2 1164.7 129 L1164.7 128.9 L1164.7 128.9 C1164.5 128.7 1164.2 128.5 1163.8 128.5 C1163.3 128.4 1162.8 128.5 1162.2 128.9 C1162.1 128.9 1162 129 1161.9 129 L1161.9 129 C1161 129.6 1160.1 131.3 1159.1 133.1 C1158.4 134.3 1157.7 135.6 1156.9 136.8 C1156.1 137.8 1154.1 141 1151.9 144.6 C1147.9 150.9 1143.2 158.6 1142.1 159.5 C1141.4 160.1 1141.5 162.3 1141.6 164.2 C1141.6 165.2 1141.7 166.2 1141.6 166.9 C1141.4 167.9 1140.5 170.1 1139.3 172.2 C1138 174.5 1136.5 176.9 1135.6 177.7 C1134.7 178.6 1133.3 179.9 1132 181 C1131 181.8 1130.1 182.4 1129.5 182.7 C1128.4 183.1 1127 182.3 1125.7 181.6 C1124.9 181.1 1124.2 180.7 1123.9 180.7 C1123.5 180.7 1122.6 180.9 1121.6 181.1 C1120.2 181.5 1118.6 182 1117.8 182.2 C1117.4 182.4 1117.2 184.1 1117 185.5 C1116.9 186.4 1116.8 187.2 1116.6 187.6 L1116.6 187.6 C1116.1 188.7 1101.1 188.7 1085.6 188.6 C1070.3 188.6 1054.5 188.6 1052.1 189.1 C1049.7 189.6 1047.6 190.1 1045.8 190.7 C1044.1 191.2 1042.7 191.9 1041.6 192.7 C1040.2 193.7 1033 199.1 1026.9 203.8 C1022.8 206.9 1019.3 209.6 1018.4 210.3 C1016.9 211.5 1014.3 216.5 1012.7 219.6 C1012 220.9 1011.5 221.9 1011.2 222.3 C1010.2 223.7 991.3 222.4 981.3 221.8 C978.4 221.6 976.3 221.4 975.6 221.4 C974.3 221.4 972 222 969.8 222.7 C966.8 223.7 964 225 963.4 225.6 C963.3 225.7 963.7 226.1 964.2 226.7 C964.9 227.4 965.7 228.3 966.2 229.5 C967.2 231.5 967 232.7 966.9 233.9 L966.9 233.9 C966.9 234.3 966.9 234.7 966.9 235.2 C966.9 235.7 967.2 236.4 967.4 237.2 C967.9 238.8 968.4 240.5 967.7 241.6 C967.3 242.4 963.8 244.1 959.7 245.9 C954.9 248.1 949.2 250.4 947.1 251 C944.4 251.7 938.3 253.1 933.9 254 C932.2 254.4 930.7 254.7 929.9 254.9 C928.8 255.1 923.8 257.1 917.9 259.5 C908.3 263.4 896.3 268.2 894 268.2 C892.1 268.2 890.8 268.1 889.5 267.7 C888.2 267.2 887.1 266.4 885.7 265.1 C883.4 263 883.4 262.4 883.3 260.8 C883.3 260.4 883.2 259.9 883.1 259.2 C882.7 256.7 883.7 254.2 884.4 252.5 L884.4 252.5 C884.6 252.1 884.8 251.8 884.8 251.5 C885.2 250.4 887.6 249.3 889.9 248.3 C891.7 247.5 893.5 246.8 893.8 246.3 C894.4 245.5 897.1 239.3 899.4 233.1 C895.4 235 897.5 229.5 895.4 225 C893.2 220.5 894.7 217.9 894 216 C893.2 214.1 891.5 212.2 887.1 211.9 C882.7 211.6 878.3 216.2 874.1 219.3 C869.9 222.5 870.5 220.2 869.1 219.2 C867.8 218.3 869.1 215.2 869.6 213.1 C870.1 211 876 210 875.7 207 C875.4 203.9 877.5 205.1 879 204.3 C880.5 203.5 880 200.8 880.1 196.6 C880.2 192.4 879.5 192.7 877.8 189.7 C876.1 186.6 878.5 187.3 880.1 186.9 C881.6 186.5 879.5 184.1 878.9 181.6 C878.3 179.2 870.5 177.9 865.3 177.2 C860 176.4 861.8 173.6 860.5 172.4 C859.2 171.2 852.5 169.5 849.7 169.2 C846.9 168.9 847.4 171.9 847.1 174 C846.8 176.1 849.2 175.6 850.3 177.4 C851.3 179.2 843.1 179.8 840.5 181.3 C838 182.9 840.6 185.2 840.6 186.7 C840.6 188.3 839.7 187.8 838 188.3 C836.2 188.7 837.2 192.3 835 192.9 C832.8 193.5 837.1 183.4 834.6 184.7 C832.1 185.9 831.3 188.2 830.4 189.2 C829.6 190.3 828.2 189.9 826.4 189.9 C824.6 189.9 824.2 192.2 823.1 193.9 C821.9 195.5 821.8 197.9 820.5 201.2 C819.1 204.4 818.2 209.9 817.3 212.3 C816.3 214.7 818.2 227.1 818.7 228.2 C819.2 229.2 821.8 229.8 822.4 230.5 C823.1 231.3 822.3 245.2 822.3 247.3 C822.3 249.4 812.4 263.7 810.6 265.7 C808.8 267.7 802.8 269.1 800.6 268.7 C798.4 268.2 794.7 261.6 792.4 256.5 C790.1 251.5 791.4 252.3 791.3 249.1 C791.2 245.9 790.3 242.2 789.6 237.5 C788.9 232.7 790.2 226.5 791.7 223.4 C793.3 220.2 794.5 212.8 796.2 208 C797.9 203.2 800.1 193.8 799.7 192.4 C799.3 191 797.3 191 795.6 192.2 C793.9 193.4 789.8 199 788.9 199.8 C788.1 200.5 786.9 199.6 787.3 197.9 C787.7 196.2 789.3 190.8 791.1 188.4 C792.9 186 794.5 186.2 796 184 C797.5 181.9 799 178.4 800.6 176.2 C802.1 173.9 805 166.3 806.8 166.1 C808.6 165.8 807.2 169.3 809 168.8 C810.8 168.3 812.7 165.4 814.3 165.5 C815.9 165.6 812.6 169.4 812.6 170.5 C812.6 171.7 814.7 170.8 816 170.4 C817.3 170 820 166.6 821.6 165 C823.3 163.4 829.4 164.4 833 164.6 C836.6 164.8 834.9 161.9 837.1 161.3 C839.3 160.7 843.9 163.2 846.7 164.3 C849.6 165.3 850.4 165.6 852 166 C853.6 166.3 853.7 164.1 855.3 162.9 C857 161.8 869.1 164.7 870.5 163.3 C870.7 163.1 870.7 162.9 870.6 162.6 C869.4 162.4 868.1 162.3 867.2 162.2 C866.5 162.1 865.9 162.1 865.6 162 C864.5 161.8 864.1 160.2 863.8 158.2 C863.2 157.8 862.7 157.4 862.4 157 C860.4 154.8 862 155.2 856.9 153.7 C854.3 153 854.1 152.8 854.5 152.5 C854.2 152.3 853.9 152 853.6 151.8 C852.9 151 852.4 150.1 851.9 149 C851.2 149 850.5 149 849.5 149 C845.5 148.7 848.1 148.3 847.9 146.3 C847.7 144.3 847.4 144.5 844.9 144.5 C842.4 144.5 836.4 146.2 832.1 147.3 C827.8 148.3 823.3 147.3 820.8 148.7 C818.3 150.2 816.3 152.4 814.1 153.4 C811.9 154.3 809.6 152.4 806.3 151.3 C803.1 150.2 803.2 151.3 797.2 148.2 C791.3 145 795.2 144.9 792.6 142.9 C789.9 140.9 787 139.9 784.3 140.1 C781.7 140.3 779.3 144.9 777.2 144.4 C775.1 143.8 777.4 139.3 777.2 137.9 C777 136.5 774.5 133.2 773.9 133.1 C773.3 133 766.8 136.1 762.6 138.9 C758.4 141.8 755.9 141.7 752.2 143.1 C748.5 144.5 741.5 148.6 738.9 148.2 C736.4 147.8 731.8 146.1 730.7 145.3 C729.7 144.4 731.4 143.5 732 142 C732.5 140.4 731.8 139.8 729.6 140.1 C727.4 140.3 724.5 141.2 721.5 142.3 C718.4 143.5 715.8 144.9 713.2 145.5 C710.5 146 706.2 144.8 705.9 144.2 C705.6 143.7 709.6 140.1 711.4 138.7 C713.3 137.4 719.9 132.6 723 130.6 C726 128.6 728.1 125.8 729.7 124.7 C731.1 123.7 744.7 116.9 750.3 114.8 C749.7 114.7 749.1 114.7 748.4 114.6 C742.6 114.2 735.6 113.5 733.8 113.2 C731.5 112.9 731 111.1 730.5 109.6 C730.4 108.9 730.2 108.3 730 108.2 C729.3 107.9 724.2 110.2 720.4 111.9 C718.5 112.7 716.9 113.4 716.2 113.7 C714.2 114.3 712 111.1 710.2 108.5 C709.2 107.1 708.4 106 708.3 106 C707.6 105.8 706.4 105.6 705.3 105.5 C704.6 105.5 703.9 105.5 703.4 105.7 L703.4 105.7 C703 105.9 702.6 106.4 702.2 107 C701.2 108.2 700.2 109.5 698.3 109.2 C696.4 108.9 695.6 106.2 694.8 103.8 C694.4 102.5 694 101.2 693.8 101.1 L693.8 101.1 C693.1 100.7 691.5 100 689.5 99.4 C687.6 98.7 685.2 98.3 683 98.4 C680 98.6 676.9 99.2 674.3 99.6 C672.6 99.9 671.1 100.2 669.9 100.3 C668.4 100.5 666.2 100 663.9 99.3 C660.9 98.3 657.7 96.8 656.1 95.9 C654.1 94.7 653.5 89.8 653 86.1 C652.7 84.2 652.5 82.7 652.5 82.7 C652 82.4 650.2 81.4 648.3 80.7 C647.5 80.4 646.6 80.1 646 80.1 C645.6 80 645.3 80 645.3 80 C644.6 81.8 644.4 88 644.4 88 L644.4 88.9 L95.7 88.9 C96.7 90.3 95.8 93 97.1 95 C98.6 97.5 100.7 96.1 100.6 98 C100.5 99.9 99.1 101.4 97.6 102.8 C96.1 104.1 94.9 105.2 96.8 107.1 C98.7 109 99.3 106 101.3 105.7 C103.3 105.4 101.5 107.4 102.4 110.7 C103.2 114 105.1 111.3 105.5 112.9 C105.9 114.5 101.9 118.3 101.4 121.1 C100.9 123.8 103.2 126.8 102.7 129.6 C102.3 132.5 98.4 134.9 96.7 136.1 C95.1 137.2 92.4 136.6 91.2 136.5 C90 136.4 88.5 135.9 88.5 134.4 C88.5 133 91.5 131.1 91.9 128.8 C92.2 126.4 88.3 129 85.8 128.9 C83.4 128.8 89.3 118.9 89.9 117.9 C90.4 117 92.3 118.4 93.4 118.7 C94.4 119 95.9 117 96.1 115.5 C96.3 114 95.7 112 94.5 111.5 C93.4 111 93.4 112.6 91 112.3 C88.6 112.1 88 110.4 85.8 108.9 C83.6 107.4 81 109 76.1 110.1 C71.2 111.1 72.1 109.8 66.7 108.4 C61.4 106.9 57.6 103.4 56.2 104.7 C54.9 106.1 55.8 107.2 56.5 112.1 C57.3 116.9 59.7 118.8 62.2 124.8 C64.6 130.7 65.3 130.9 66.3 133.1 C67.3 135.3 66.3 137.1 66.6 139.9 C66.8 142.8 68.1 138.9 68.5 137.5 C68.9 136.1 73 137.8 74 138.6 C74.9 139.5 73.2 140 71.4 141 C69.7 142 68.8 142.3 68.7 143.6 C68.5 145 74.5 145.5 74.5 146.1 C74.5 146.7 73.7 146.8 72.4 147.6 C71 148.4 71.5 149.6 71.6 151.3 C71.7 153 69.7 153.1 69.2 154.6 C68.6 156.1 73.4 156.3 74.6 157 C75.8 157.8 80.3 158.1 83.1 158 C85.8 157.9 87.2 158.4 84.1 160.4 C81 162.5 78.1 162 74.2 161.5 C70.3 161 70.4 157 69.9 161.4 C69.3 165.8 70.6 171.1 70.6 178.8 C70.6 186.6 68.9 191 68.9 199.1 C68.9 207.3 67 217.8 65.9 222.2 C64.7 226.5 61.6 225.9 62.8 228 C64.1 230.2 64.8 226.3 66.6 228.4 C68.3 230.5 61.3 236.2 58.6 238.8 C56 241.3 59.1 240.3 62.3 244.7 C65.4 249.2 63.3 249.3 61.5 253.4 C59.8 257.5 63.5 257.6 65.8 260.2 C68.1 262.7 65.7 262 65.6 265 C65.6 267.9 67.1 272.7 66.4 277.2 C65.7 281.8 63.4 283.5 64.3 286.5 C65.3 289.6 66.3 285.6 68.3 285.8 C70.3 286 69.5 287.7 68.3 289.3 C67.2 290.9 63.5 293.5 62.7 295.7 C61.8 297.9 67.1 302.5 70.8 308.8 C74.4 315 74.7 316.2 74.5 318.6 C74.3 320.9 74 323.2 74.5 326.1 C75 329.1 74.6 329.9 75.6 333 C76.7 336 86.8 345.8 88.5 348.9 C90.1 351.9 87.7 353.5 89.8 354.5 C91.9 355.4 92.8 352.4 94.3 354.3 C95.8 356.2 98.1 355.5 98.7 354.5 C99.3 353.4 97.1 350.6 99.5 349 C101.8 347.3 103.2 349.2 105.1 350.5 C107 351.7 106.5 349.2 107.2 348.5 C107.9 347.7 108.9 349.2 112.1 350.8 C115.2 352.3 113.4 349.5 115.4 348.4 C117.4 347.3 123.1 352.7 122.8 354.5 C122.4 356.3 120.1 354.2 117.5 353.8 C114.9 353.4 115.1 354.7 111.9 354.6 C108.6 354.4 104.7 354.4 103.7 355.3 C102.6 356.3 103.7 357.5 104.8 359.4 C105.8 361.3 110.5 365.6 109.8 367 C109 368.4 104.6 365.1 102.9 363.1 C101.2 361.1 101.4 359.4 100.1 360.2 C98.9 361.1 99.5 364 99.6 366.5 C99.7 369.1 101.4 370.7 101.9 372.6 C102.4 374.4 109.2 375.9 111.6 377.2 C114 378.5 113.4 379.7 114.2 382.2 C114.9 384.6 113.2 383.4 111.4 385.7 C109.7 387.9 111.4 387.5 111.4 390.3 C111.4 393.1 112.8 393.3 114.8 395.2 C116.9 397.1 120.4 402.7 123.8 406.4 C127.2 410 133.1 416 135.6 419.3 C138.1 422.5 136.7 421.9 137.4 424 C138.1 426.1 136.5 429 137.4 431.5 C138.3 434 142.3 433.2 145.5 433.9 C148.8 434.5 155.3 434.4 158.6 435 C162 435.6 161.4 437 164.6 437.8 C167.9 438.5 169.2 441.8 171.3 443.6 C173.4 445.3 175 443.8 178.1 443.7 C181.1 443.6 180.1 447.6 181 449.9 C182 452.2 185.8 450.8 188.2 451.2 C190.6 451.7 193.5 453.8 197.1 456.9 C200.8 459.9 200.8 459.3 202.1 463.3 C203.4 467.2 202.9 469.1 205.3 475.8 C209.3 475.6 217.5 475.1 226 474.7 C239.5 474 253.7 473.2 254.2 473.3 C255.2 473.4 255.3 474.3 255.4 475.5 C255.5 476.5 255.6 478.1 256.5 478.4 C257.9 479 283.8 488.2 303.3 494.9 C314.5 498.7 323.4 501.7 324.3 501.7 C325.8 501.7 327.2 501.8 328.6 501.9 C330 502 331.3 502.1 332.4 502.1 L335.4 502.2 C346.1 502.3 380.9 502.6 381.3 502.1 C381.4 502 381.5 501 381.6 499.8 C381.8 497.3 382.1 494.2 383.7 493.2 C384.8 492.5 393.4 491.9 401.6 491.8 C409.1 491.6 416.5 491.8 417.7 492.5 C418.9 493.2 419.8 494.3 420.8 495.5 C421.8 496.8 423 498.2 424.6 499.3 C426.8 500.9 428.2 501.5 429.4 502 L429.4 502 C429.9 502.3 430.4 502.5 430.9 502.8 C431.9 503.3 436.2 506.5 440.4 509.8 C445 513.4 449.5 517 449.9 517.6 C450.4 518.2 451.3 520.3 452.2 522.5 C452.9 524.1 453.6 525.8 454.2 527.1 C454.9 528.5 455 529.9 455.2 531.4 C455.4 533.6 455.7 535.9 457.8 537.8 C459.2 539.1 463.2 541.4 467.8 543.8 C475.5 547.9 484.5 552.2 485.2 552.3 C485.2 552.3 485.8 551.5 486.6 550.4 C487.9 548.6 489.2 546.2 489.4 545.5 C489.6 544.7 490.5 542.9 491.4 541.2 C492.2 539.9 493.1 538.5 493.7 537.9 C494.4 537.2 495.7 536.4 497 535.7 C498.3 534.9 499.8 534.3 500.9 534.1 L500.9 534.1 C502.5 533.7 510.5 535.2 515.2 536.1 C516.7 536.3 517.9 536.6 518.2 536.6 C518.9 536.7 521 538.2 523.3 540.1 C526.7 542.8 530.7 546.3 532.2 547.8 C533.9 549.3 537 554.4 539.6 558.7 C541.2 561.2 542.5 563.3 543.2 564.2 C544.1 565.5 546.4 569 548.6 572.4 C550.9 576 553.2 579.6 553.8 580.2 C554.1 580.5 554.8 580.8 555.6 581 C557.5 581.7 559.5 582.4 559.5 584.7 C559.5 586.3 559.3 588.1 559.2 589.5 C559.1 590.4 559 591.2 559 591.6 C559 592.1 560.9 596.4 562.9 600.6 C564.7 604.5 566.5 608.1 566.8 608.4 C566.8 608.4 566.9 608.6 567.2 608.6 C568.5 608.5 570.9 608.1 575.3 610.4 C577.9 611.8 579.5 612.9 580.8 613.8 C582.5 615 583.6 615.8 585.3 615.9 C586.7 616 587.5 615.8 588.2 615.7 C589.3 615.5 590.2 615.4 592.1 615.9 C593 616.2 593.8 616.7 594.5 617.3 C597 619.4 597.2 621.7 600.7 620.5 C601.5 620.3 602.3 619.9 603.1 619.6 C603 618 602.7 616.7 602.3 616.4 C601.3 615.9 600.8 613.2 599.3 610.2 C597.8 607.1 596.5 601.2 596.4 600 C596.3 598.7 598.7 594.5 598 593.4 C597.3 592.4 595 593.4 592.4 593.4 C589.8 593.4 591.2 585.6 592.4 585.2 C593.5 584.8 595 588.4 596.4 589.4 C597.8 590.3 599.5 589.4 600 588.5 C600.5 587.6 603 583.5 602.2 582.2 C601.5 581 597 580.6 597.2 579.1 C597.4 577.5 603.3 580 604.1 578.7 C604.8 577.4 606.6 575.5 605.7 573.7 C604.7 572 603.9 572 604.7 571.3 C605.5 570.6 607 571.7 608.2 571 C609.4 570.3 610.4 569 610.7 568 C611 566.9 609.9 564.6 611.9 564.7 C613.8 564.8 614.4 568.2 615.9 568.1 C617.4 568 619.8 566.4 617.9 564.4 C616 562.5 614 560.7 614.8 560.1 C615.6 559.5 616.3 560.9 618 561.1 C619.6 561.2 617.7 559.4 618.9 559.2 C620 559 619.9 560.4 620.4 561 C621 561.6 622 560.5 623.6 560.3 C625.2 560.2 623.9 561.4 623.8 562.5 C623.6 563.6 625.7 563.7 627.4 563.8 C629 563.8 630.5 563.5 630.6 562.4 C630.6 561.3 629.3 561.3 629 561.1 C628.6 560.8 630.1 559.9 632.5 559.5 C634.8 559.2 638 556.5 640.2 555.8 C642.4 555.2 642.8 550.9 643.6 549.8 C644.5 548.8 646.1 547.1 647.8 547.5 C649.5 547.8 646.3 550.7 648.2 550.6 C650.1 550.5 652.5 547.9 652.7 545.7 C652.9 543.4 650.3 545.8 648.8 544.4 C647.2 543.1 644.9 541.1 645 539.4 C645.2 537.7 647.8 539.4 648.9 539.5 C649.9 539.6 650.6 536.1 652.6 536.3 C654.6 536.5 652 539.5 652.6 541.8 C653.2 544.1 654.1 541.7 656.7 541.8 C659.3 541.9 659 542.4 660.7 542.3 C662.4 542.2 668.4 539.5 670 538.6 C671.5 537.8 670.4 535.8 670.2 534.2 C669.9 532.6 671.2 531.6 672.4 533.7 C673.7 535.8 672.2 537 672.5 538.5 C672.9 540.1 680.4 539 680.6 537.8 C680.8 536.6 679.1 535.9 678.8 535.1 C678.4 534.4 678.8 528.8 681 529.1 C683.2 529.3 681.8 532.8 683.3 534.4 C684.9 536 697.7 540.7 699.1 541.9 C700.4 543.1 702.3 542.8 704.1 542.6 C705.8 542.4 712.1 544.2 713 543.1 C713.9 542.1 711.4 540.8 710.4 539.9 C709.4 539 708.5 539.9 705.6 540.3 C702.8 540.7 704 539.1 704.1 538.1 C704.1 537.1 709.6 536.5 711.7 536.5 C713.8 536.5 718.8 541.8 720.1 542.3 C721.4 542.8 720.9 540.1 723.3 540.3 C725.8 540.6 723.7 542.9 724.2 544.9 C724.7 546.9 730.1 550.9 732.6 551.2 C735 551.5 735.8 548.9 737.3 547.5 C738.7 546.2 740 546.7 742.6 547.8 C745.2 548.9 741.6 552.5 742.8 552.4 C743.9 552.3 745.3 551.1 745.7 549.8 C746 548.5 747 546 746.4 545 C745.7 544 743.3 542.4 744.5 541.8 C745.7 541.1 750.2 543.1 751.7 544.3 C753.3 545.4 754.6 548.1 756.2 549.3 C757.8 550.6 759.6 550.2 762.3 551.1 C765 552.1 759.7 553.5 759.1 555.5 C758.6 557.4 763.6 554.8 764.5 554.3 C765.5 553.7 767.1 551.5 766.8 549.6 C766.4 547.7 763.3 547.6 761.8 546.7 C760.2 545.7 759.4 545.5 757.7 546.1 C756 546.7 754.2 542.5 753.1 541.3 C752.1 540 757.4 541.5 758.1 540.9 C758.8 540.3 756.1 539.3 755.6 538.1 C755.1 536.9 759.3 538.1 760.7 537.2 C762.2 536.2 758 531.4 757.5 531.6 C757 531.7 756.5 532.8 755.6 534.2 C754.7 535.7 754 535 752.2 534 C750.4 533 752.3 532.1 752.4 531 C752.5 529.8 748.2 530.7 744.5 531.1 C740.9 531.5 739.1 530.3 738.7 529.3 C738.2 528.3 745.3 525.6 746.9 525.5 C748.6 525.4 755.7 527.8 757.2 527.6 C758.6 527.4 758.6 526.2 759.6 525.1 C760.6 524 763 523.9 764.9 524.3 C766.8 524.7 768.7 524.6 771.7 524.2 C774.7 523.8 779.5 523 781.5 524.1 C783.5 525.2 780.3 526.4 780.1 527.6 C779.9 528.7 783.5 527.4 784.5 526.8 C785.4 526.3 784.9 523.7 785.7 522.6 C786.4 521.5 786 516.6 787.1 516.1 C788.2 515.6 788.9 518.5 790.2 521.8 C791.5 525.2 792.3 525.9 793.2 526.5 C794.1 527.1 795.9 524.3 796.9 523.2 C797.8 522.1 798.5 520.8 799.8 521.4 C801.1 522.1 798.4 523.6 799.1 524.9 C799.9 526.1 801.8 523.8 802.7 523.1 C803.6 522.4 802.5 519.6 803.5 519.4 C804.5 519.2 804.6 520.7 805.5 521.1 C806.3 521.4 807.2 519.6 807.5 518.4 C807.8 517.3 809.7 521.9 810.3 523 C810.8 524 813.9 524.2 817 524.3 C820 524.4 823.5 521.1 825.6 521.1 C827.7 521.1 825.3 522.7 824.5 524.7 C823.7 526.7 828.6 527 829.6 527.1 C830.5 527.3 834.2 524.3 836 524.3 C837.7 524.3 835.9 526.5 835.9 528.7 C835.9 530.8 840.4 530.7 840.6 531.8 C840.9 532.9 839.2 531.8 836.7 532.6 C834.2 533.3 839.5 536.5 842 538.4 C844.5 540.3 845.7 538.1 848 537.3 C850.3 536.5 865.1 530.3 867.1 530.1 C869 530 875.6 536.3 878.5 538.8 C881.5 541.4 878.6 540.8 879.2 542.4 C879.7 544.1 888.9 550 890.5 550.7 C892 551.5 893.6 558.3 893.9 561.2 C894.3 564.2 889.5 575 889.3 576.6 C889.1 578.2 891.4 582.5 891.7 582.9 C892.1 583.3 894.1 580.4 894.3 579.9 C894.5 579.3 892.2 576.9 893.5 576.6 C894.8 576.4 896 578.5 896.4 578 C896.7 577.6 896.9 576.2 898.5 576 C900.1 575.9 899.2 578.4 899.3 580.3 C899.4 582.1 896.7 582.5 894 584.8 C891.3 587.2 894.5 588.1 896.2 591 C897.8 593.8 899.1 596.7 901.8 597.8 C904.5 598.9 906.4 596.3 907.8 596.4 C909.2 596.6 907.7 597.8 906.3 599.2 C904.8 600.7 905.7 605.2 907.2 605.8 C908.7 606.5 911.2 602.4 912.2 603 C913.2 603.5 908.7 606.7 908.5 608.1 C908.3 609.5 908.6 608.3 909.7 608.7 C910.8 609.1 911.2 617 912 619.4 C912.9 621.7 912.6 619.9 915.3 620.1 C918 620.3 919 625.2 921.1 627 C923.2 628.8 929.2 632 929 633.5 C928.7 634.9 925.7 633.9 925 635.9 C924.2 638 928.9 636.5 931.3 636.5 C933.6 636.5 933.5 635.5 934.6 634.5 C935.8 633.6 936.7 633.7 937.5 634 C938.3 634.4 934.6 639.9 935.5 640.7 C936.4 641.5 938.8 637 940.1 635.4 C941.5 633.7 941.4 632.9 940.9 631.7 C940.5 630.4 940.5 629.4 942.1 627.4 C943.6 625.3 944.8 623.8 944.8 620.2 C944.8 616.6 944.7 614.9 945.1 610.7 C945.5 606.4 945.9 603.6 946 600.9 C946.1 598.1 944.8 595.9 943.6 594.2 C942.3 592.5 940.4 593 938.9 591.8 C937.3 590.7 941.1 590.9 942.2 589.6 C943.4 588.4 941.4 586.4 939.7 582.6 C938.1 578.8 934.6 571.1 932.6 568.4 C930.6 565.7 929.1 561.8 929.1 561.1 C929.1 560.4 931.4 559.9 932.6 561.8 C933.7 563.7 934.8 567.1 935.8 567.4 C936.9 567.6 936.9 566 936.3 563 C935.7 559.9 932.5 556.3 929.6 552.5 C926.7 548.7 924.8 542 923.7 540.8 C922.7 539.7 921.2 532.1 919.5 527.3 C917.9 522.4 916.8 520.4 917.2 515.6 C917.7 510.8 916.4 510.1 916.4 508.5 C916.4 506.8 921.1 505.8 919.5 504.6 C918 503.4 916.2 503.6 916.6 502.2 C917 500.8 919.4 502.2 920.5 501.9 C921.5 501.7 923.9 500.2 923.6 498.8 C923.3 497.4 921.8 499.1 920.9 498.7 C919.9 498.3 919.5 494.4 920.5 493.4 C921.5 492.4 923.5 494.7 925.5 494 C927.6 493.4 927.3 491.4 927.5 489.4 C927.7 487.4 932.5 485.1 933.3 483.9 C934.1 482.7 932.4 481.8 930.5 480.6 C928.6 479.4 928.3 477.5 929.3 476.1 C930.3 474.6 930.9 476.8 932.6 478.4 C934.3 480 933.4 477.9 933.8 477.2 C934.2 476.5 937.5 475.7 938.9 475.7 C940.3 475.7 944.7 475.1 945.9 474.5 C947.2 473.9 946.4 471.4 947.4 470 C948.4 468.6 949.3 471.3 951.5 471.6 C953.6 471.9 954.2 468.9 956.5 467.2 C958.8 465.5 961 465.2 961.4 463.7 C961.7 462.3 960.2 459 961.4 458.5 C962.6 458 963 461.1 963.9 460.8 C964.8 460.4 965.9 454.4 967.1 453.9 C968.3 453.4 972.8 449.7 974.2 448.4 C975.5 447.1 976.1 446.8 978.2 446.9 C980.3 447.1 985.2 447.6 986.5 447.4 C987.8 447.2 987.2 446.5 986.2 445 C985.2 443.6 986 440.5 986.5 439.1 C986.9 437.7 988.3 440.8 989.6 440.5 C991 440.2 991.7 439.4 992.8 438.3 C993.9 437.1 993.6 436.4 994.4 435.8 C995.2 435.1 995.9 434.9 998.1 433.7 C1000.4 432.5 998.5 431.5 998.1 430.3 C997.6 429.1 996.8 427.6 998.1 427.3 C999.5 427 1000.4 428.4 1001.2 428.2 C1001.9 428.1 1003.4 426.9 1005.1 426.8 C1006.9 426.6 1005.5 427.8 1006.5 428.3 C1007.4 428.8 1011 427.5 1012.6 426.5 C1014.1 425.5 1016.2 425.4 1018 426 C1019.7 426.6 1016.8 428.2 1017.5 429.5 C1018.2 430.8 1021.9 424.6 1021.6 423.5 C1021.3 422.5 1019.6 424.1 1018.9 424.1 C1018.1 424.1 1018.9 423.1 1017.2 422.5 C1015.6 422 1014.7 423.8 1013.1 424.3 C1011.6 424.7 1009.3 423.6 1007.6 423 C1005.9 422.3 1004.5 418.9 1004.7 417.8 C1004.8 416.8 1007.1 418.7 1009.9 420.1 C1012.8 421.5 1011.7 420.2 1014.1 419.4 C1016.5 418.6 1016.1 417.8 1015.8 416.6 C1015.5 415.4 1013.2 414.3 1010.5 413.1 C1007.9 411.8 1005.5 411.6 1005 411.4 C1004.4 411.1 1005.5 409.5 1007.5 409.9 C1009.4 410.4 1012 411.8 1012.9 411.6 C1013.9 411.3 1014.1 409.5 1015 408.9 C1015.9 408.2 1016.1 410.4 1016.3 411.2 C1016.5 412 1017.3 411.5 1018.7 411.3 C1020.2 411 1018.9 412.1 1020.3 413.2 C1021.7 414.3 1021.9 412.4 1024.5 411.5 C1027.1 410.6 1029.7 408.8 1030.4 408 C1031.2 407.1 1031.3 405.4 1031.2 404.1 C1031.2 402.8 1029.4 401.9 1028.3 402.6 C1027.2 403.4 1026.6 406.4 1025.6 407.2 C1024.6 407.9 1025.2 405.8 1025.2 404.4 C1025.2 402.9 1025.2 400.4 1024.6 400 C1024 399.6 1021.9 399.9 1020.6 400.2 C1019.2 400.6 1015.5 401.7 1012 401.2 C1008.6 400.8 1011.3 398.2 1011.2 396.9 C1011.1 395.5 1011.3 392.4 1012.8 392.8 C1014.3 393.3 1013.5 397.2 1014 398.1 C1014.5 399 1016.1 398.4 1017 398.2 C1018 398.1 1018.2 397.5 1017.8 396.8 C1017.4 396.2 1016.8 394.9 1017.9 394.8 C1019 394.7 1019.3 395.6 1020 395.7 C1020.6 395.7 1020.9 395.8 1021.9 395.2 C1023 394.6 1021.6 392.5 1022 392 C1022.5 391.4 1023.8 392.8 1024.8 394 C1025.8 395.3 1027.4 394.7 1027.9 394 C1028.3 393.4 1029.9 393.3 1028.2 390.9 C1026.6 388.5 1026 387.9 1026.3 387 C1026.6 386.2 1030.2 387.7 1029.4 385.1 C1028.5 382.6 1028.5 379.4 1027.1 378.6 C1025.8 377.9 1023.2 378.2 1021.5 378.8 C1019.8 379.5 1016.8 380.8 1014.9 380.5 C1013 380.2 1013.1 375.8 1012.5 374.6 C1012 373.5 1009.4 373.3 1007 372.7 C1004.6 372 1001.3 371.5 1000.8 370.5 C1000.3 369.4 1004.2 370.2 1005.6 370.3 C1006.9 370.4 1010 370.5 1012.7 372.3 C1015.5 374.1 1016.7 376.1 1017.5 375.6 C1018.3 375.1 1018.5 374.5 1018.7 373.4 C1018.9 372.4 1016.7 372.2 1015.2 370.7 C1013.7 369.1 1013.6 368.5 1011.2 367.2 C1008.8 366 1008.9 366.5 1008.1 365.8 C1007.4 365.2 1009.8 364.8 1011.9 364.8 C1014 364.8 1014.2 366.1 1016.8 368.5 C1019.5 370.8 1018.9 370.2 1019.9 370.1 C1020.8 370 1021.1 368.4 1021.1 367.1 C1021.1 365.9 1020.8 365.3 1017.3 363.4 C1013.8 361.4 1013 359.7 1010.1 357.8 C1007.3 355.8 1007 353.9 1007 353.9 C1007 353.9 1011 354.5 1013.3 356.3 C1015.6 358.1 1018.2 360 1019.8 360.3 C1021.4 360.6 1021.6 358 1022.1 356.8 C1022.6 355.6 1018.1 354.3 1016.4 353.6 C1014.7 352.8 1010 350.5 1007.8 349.6 C1005.6 348.8 1006.6 348.3 1005.1 346.7 C1003.6 345 999.5 347.4 998 347 C996.5 346.7 998.3 345.1 999.7 344.5 C1001.2 344 1002.1 340.3 1002.8 339.5 C1003.5 338.7 1005 338.2 1005.5 339.5 C1005.9 340.9 1004.1 342.9 1004.5 343.1 C1004.8 343.4 1006.5 343.8 1007.2 344.7 C1007.9 345.6 1008.8 346.2 1009.8 345.8 C1010.7 345.3 1012.3 346.4 1014.4 348.1 C1016.4 349.8 1019 352 1019.6 351.7 C1020.3 351.4 1019.7 350.5 1019.7 349.8 C1019.7 349.2 1018.7 346 1017.4 345.3 C1016 344.6 1013.3 344.6 1012.2 343.6 C1011.1 342.7 1012.3 338.2 1013.1 337.9 C1014 337.5 1014 340.1 1014.7 341.4 C1015.3 342.7 1015.7 342.3 1016.1 341.8 C1016.6 341.4 1016.5 338.8 1016.7 337.8 C1016.8 336.8 1017.3 334.4 1017.2 333 C1017.1 331.5 1015.2 330.7 1015 330 C1014.8 329.3 1017 329.7 1017.7 329.3 C1018.3 328.9 1014.4 325 1014.6 324.5 C1014.8 324.1 1017.8 322.7 1019.2 322 C1020.7 321.2 1022.6 319.6 1024.1 318.5 C1025.6 317.5 1029.5 317.1 1029.9 318.3 C1030.4 319.5 1028 319 1027.1 320.5 C1026.2 322.1 1029.6 321.6 1029.6 322.5 C1029.6 323.4 1027.1 322.4 1024.4 323.1 C1021.7 323.8 1022.8 325 1022.1 326 C1021.3 327.1 1023.9 327 1025 327.6 C1026.2 328.2 1025 328.7 1024.6 330 C1024.3 331.2 1020.4 329.8 1019.9 330.6 C1019.4 331.3 1020.5 332.3 1022.3 332.7 C1024.1 333.1 1022.7 333 1023.8 334.9 C1024.9 336.8 1022.3 335.5 1021.2 336 C1020 336.6 1020.2 337 1021.1 338.1 C1022 339.2 1022.5 337.5 1023.7 337.5 C1024.9 337.5 1028 339.1 1027.8 340.3 C1027.7 341.5 1025.4 340.1 1023.7 340.5 C1021.9 340.9 1021.4 342.2 1021.2 343.2 C1021 344.1 1023 345.6 1023.6 346.7 C1024.2 347.9 1025.4 346.3 1026.2 346 C1026.9 345.7 1027 347 1027.8 347.3 C1028.6 347.6 1028.2 345.3 1029.1 345 C1030 344.7 1030.2 346.4 1030.2 347.7 C1030.1 348.9 1029.4 349.4 1028.7 351 C1028 352.7 1030.3 351.4 1031.3 351.9 C1032.4 352.5 1029.7 354.2 1030.1 355.1 C1030.6 356 1032.9 353.8 1033.9 354.9 C1034.8 355.9 1029.4 361.7 1027.9 364.4 C1026.3 367 1026.6 371.9 1027.4 372.6 C1028.2 373.3 1031.4 368.5 1032.6 366.9 C1033.8 365.3 1036.1 360.8 1037.1 358.9 C1038 357 1038 353.5 1040 351.5 C1042.1 349.5 1046.3 342.3 1045.2 341.2 C1044.1 340.1 1043.1 340.9 1043.1 340 C1043.1 339.1 1044.3 336.5 1044.8 334.9 C1045.2 333.3 1039.9 331.3 1038.8 329.7 C1037.8 328.1 1037.7 327.3 1037 324.3 C1036.4 321.2 1034.7 318.9 1034.6 318 C1034.5 317.1 1035.1 314.5 1036.4 313.4 C1037.6 312.4 1039.1 310.3 1042 309.1 C1044.9 307.9 1044.9 305 1045.4 307.8 C1045.9 310.5 1043.6 310.5 1041.8 312 C1040 313.5 1038.5 314.9 1037.8 316.3 C1037.1 317.7 1037.4 319.1 1039.2 320.2 C1041 321.2 1040 322.2 1041.2 323.8 C1042.5 325.4 1046.4 324.7 1048.6 326.6 C1050.8 328.5 1047 331 1048.5 331.8 C1050 332.5 1050.5 330.7 1051.4 329.9 C1052.4 329 1052.7 325.3 1053.4 324.2 C1054 323 1057.1 323.6 1056.9 322.3 C1056.7 320.9 1057.9 320.2 1059.9 318.8 C1061.9 317.3 1063.2 316 1064.6 312 C1066 308 1067.3 300 1067.4 299.6 C1067.4 299.2 1067 298.2 1065.1 297.6 C1063.3 296.9 1061 296.3 1061.5 295 C1062.1 293.6 1063.7 290.4 1065.3 289.1 C1066.8 287.8 1066.2 284.9 1066.1 283 C1066 281.1 1066.1 275.5 1067.1 276.2 C1068.1 277 1068.5 280.7 1068.5 282.3 C1068.5 283.8 1068.9 287.5 1070.1 286.5 C1071.3 285.5 1075.2 282.3 1076.7 281.5 C1078.1 280.7 1085.3 277.3 1089 276.7 C1092.6 276.2 1107.4 276.9 1110.5 276.9 C1113.5 276.9 1115 276.3 1115.9 275 C1116.8 273.8 1116.9 264.5 1118 264 C1119.1 263.5 1119.6 265 1120.8 266 C1122.1 267.1 1124.1 264.8 1124.9 265.5 C1125.7 266.3 1123.4 267.2 1122.7 268.1 C1121.9 269 1123.2 271.1 1124.3 271.2 C1125.5 271.2 1130.6 267.6 1131.9 267.1 C1133.2 266.6 1136.7 267.6 1139.4 268.3 C1142.1 269 1146.5 268.6 1147.8 267.9 C1149 267.1 1146.8 262.3 1145.1 260.2 C1143.3 258.1 1142.6 258.9 1142.3 260 C1142.1 261 1144.3 262.6 1144.3 264.5 C1144.4 266.3 1143.2 266 1141.4 266.5 C1139.7 267.1 1138.8 266.6 1136.6 264.9 C1134.4 263.3 1134.8 262.4 1134.2 260.8 C1133.7 259.3 1133.3 256.4 1131.6 256 C1130 255.5 1126.2 252.7 1125.9 251.9 C1125.6 251.1 1128.7 247.7 1129.3 247.2 C1130 246.6 1135.2 245.8 1135.3 244.7 C1135.5 243.5 1132.2 244 1131.3 243.9 C1130.5 243.8 1130.6 241.8 1130.4 240.8 C1130.2 239.8 1130.8 237.6 1130.8 235.9 C1130.8 234.2 1134.8 230.9 1137.4 228.6 C1140.1 226.2 1140.5 225 1141.9 223.4 C1143.2 221.7 1142.7 220 1142.8 218.8 C1142.9 217.5 1144.8 216.6 1146.6 216.1 C1148.3 215.6 1148.7 217 1150.3 217.3 C1152 217.6 1149.7 211.6 1150.2 211.1 C1150.6 210.7 1151.1 211.2 1151.6 212.4 C1152.2 213.7 1153.3 214.8 1154 215 C1154.6 215.2 1154.8 211.6 1155.5 211.5 C1156.2 211.5 1156.3 213.7 1157.2 213.7 C1158 213.8 1158.6 210.8 1159.3 210.5 C1159.9 210.2 1160 211.4 1160.2 211.7 C1160.3 212.1 1160.7 212.2 1163.8 210.7 C1166.8 209.3 1168.9 198.6 1170.1 198.6 C1171.4 198.6 1171 201.1 1172.1 201.7 C1173.2 202.3 1171.1 203.3 1170.6 204.4 C1170.2 205.5 1173.3 206.2 1175.9 206.5 C1178.4 206.8 1176.4 201.2 1176.8 200.6 C1177.2 200 1180.3 199.6 1182 199.7 C1183.6 199.8 1184.7 204.2 1185.4 203.1 C1186.1 202.1 1188 199.9 1190.1 197.9 C1192.3 196 1195.8 196.1 1196.9 195.6 C1198 195.1 1198.3 195.8 1200.3 196.6 C1202.4 197.5 1203.1 195.8 1204 195.1 C1204.8 194.3 1205.4 193.1 1205 191.9 C1204.5 190.8 1204.7 189.5 1204.9 188.4 C1205 188 1205.1 187.6 1205.3 187.2 "/><path d="M1205.3 187.2 L1205.3 187.2 L1205.3 187.2 "/></g></g></g></g></svg>