<?xml version="1.0" encoding="UTF-8" standalone="no"?>
<svg
   xmlns:dc="http://purl.org/dc/elements/1.1/"
   xmlns:cc="http://creativecommons.org/ns#"
   xmlns:rdf="http://www.w3.org/1999/02/22-rdf-syntax-ns#"
   xmlns:svg="http://www.w3.org/2000/svg"
   xmlns="http://www.w3.org/2000/svg"
   version="1.1"
   id="svg2"
   height="128"
   width="128">
  <defs
     id="defs4" />
  <metadata
     id="metadata7">
    <rdf:RDF>
      <cc:Work
         rdf:about="">
        <dc:format>image/svg+xml</dc:format>
        <dc:type
           rdf:resource="http://purl.org/dc/dcmitype/StillImage" />
        <dc:title></dc:title>
      </cc:Work>
    </rdf:RDF>
  </metadata>
  <g
     style="opacity:1"
     transform="translate(0,-924.36218)"
     id="layer1">
    <g
       style=""
       id="g3464">
      <g
         style=""
         id="g3461">
        <path
           id="path3759"
           transform="translate(0,924.36218)"
           d="M 64 0 A 64 64 0 0 0 0 64 A 64 64 0 0 0 64 128 A 64 64 0 0 0 128 64 A 64 64 0 0 0 121.99609 37.115234 C 121.21986 37.988453 120.35899 38.84102 119.41016 39.671875 C 116.88418 41.919447 113.90861 44.031502 110.48633 46.007812 C 107.10478 47.984097 102.97101 50.115976 98.082031 52.402344 C 103.50065 52.596097 107.41071 53.739495 109.81445 55.832031 C 112.25894 57.885882 113.84868 61.546249 114.58203 66.816406 L 122.58789 63.621094 L 122.58789 67.980469 L 114.21484 71.699219 C 112.62593 78.248148 109.75328 84.294525 105.59766 89.835938 C 101.48276 95.377415 96.859989 100.08587 91.726562 103.96094 C 86.633877 107.87482 81.724059 110.89599 76.998047 113.02734 C 72.272035 115.15863 68.748046 116.22461 66.425781 116.22461 C 65.447986 116.22461 64.531353 115.85736 63.675781 115.12109 L 61.537109 113.25977 C 60.274123 112.05849 59.642578 110.74243 59.642578 109.30859 C 59.642578 107.99107 60.598823 105.91676 62.513672 103.08789 C 64.469263 100.29784 67.423076 97.062239 71.375 93.380859 C 75.326924 89.738231 80.317917 85.883339 86.347656 81.814453 C 92.418138 77.784318 99.283964 73.927408 106.94336 70.246094 C 106.4952 67.417229 105.67955 65.519548 104.49805 64.550781 C 103.35729 63.582014 101.38148 63.097656 98.570312 63.097656 C 96.207307 63.097656 92.113142 64.278787 86.287109 66.642578 C 80.461078 68.967684 75.285976 71.873767 70.763672 75.361328 C 69.052529 76.717667 67.850808 77.396484 67.158203 77.396484 C 66.343373 77.396484 65.935547 76.757353 65.935547 75.478516 C 65.935547 73.308478 66.588851 70.827223 67.892578 68.037109 C 69.237047 65.20831 70.866401 63.018842 72.78125 61.46875 C 75.429447 59.259961 79.523611 56.955341 85.064453 54.552734 C 91.053451 51.878925 96.51364 48.953011 101.44336 45.775391 C 106.37308 42.559039 110.18215 39.575556 112.87109 36.824219 C 115.60077 34.072882 116.96484 31.99856 116.96484 30.603516 C 116.96484 29.09222 115.41666 28.337891 112.32031 28.337891 C 108.32765 28.337891 103.66331 29.169639 98.326172 30.835938 C 92.989038 32.502243 87.039848 35.138322 80.480469 38.742188 C 73.92109 42.307302 67.05722 46.706067 59.886719 51.9375 C 60.212651 46.551058 60.701652 42.287288 61.353516 39.148438 C 62.00538 35.970836 63.022993 33.394279 64.408203 31.417969 C 65.793414 29.441658 67.606875 27.698796 69.847656 26.1875 C 72.088438 24.676198 75.450077 22.736871 79.931641 20.373047 C 87.751584 16.186133 94.761614 13.336406 100.96875 11.810547 A 64 64 0 0 0 64 0 z M 105.35352 76.234375 C 100.58676 78.210725 95.962031 80.76738 91.480469 83.90625 C 86.998905 87.083806 83.128459 90.222146 79.869141 93.322266 C 76.609822 96.422385 73.921292 99.290735 71.802734 101.92578 C 69.724919 104.59964 68.685547 106.34444 68.685547 107.1582 C 68.685547 107.89447 69.257676 108.26172 70.398438 108.26172 C 72.231804 108.26172 75.510316 106.88613 80.236328 104.13477 C 84.96234 101.38347 89.953334 97.314144 95.208984 91.927734 C 98.712752 88.323856 101.05483 85.437681 102.23633 83.267578 C 103.45857 81.136291 104.49794 78.791985 105.35352 76.234375 z "
           style="fill:#a7463d;fill-opacity:1" />
      </g>
    </g>
  </g>
  <g
     style="display:none;opacity:0"
     transform="translate(0,-924.36218)"
     id="layer2">
    <g
       id="text3762"
       style="font-style:normal;font-variant:normal;font-weight:bold;font-stretch:condensed;font-size:122.06252289px;line-height:100%;font-family:'Agency FB';-inkscape-font-specification:'Agency FB Bold Condensed';text-align:start;letter-spacing:-8.00132465px;word-spacing:0px;writing-mode:lr-tb;text-anchor:start;fill:#ffffff;fill-opacity:1;stroke:none"
       transform="scale(1.0253584,0.97526875)" />
  </g>
</svg>
