<?xml version="1.0" standalone="no"?>
<!DOCTYPE svg PUBLIC "-//W3C//DTD SVG 1.1//EN"
	"http://www.w3.org/Graphics/SVG/1.1/DTD/svg11.dtd">
<svg xmlns="http://www.w3.org/2000/svg" version="1.1"
	xmlns:xlink="http://www.w3.org/1999/xlink"
	xml:space='preserve' color="black"
	width="7.38in" height="3.64in" viewBox="0 0 531 262">
<title>/tmp/babel-4066v8b/abc-4066a6Y (1) tune 1</title>
<!-- Creator: abcm2ps-7.8.9 -->
<!-- CreationDate: Apr 12, 2017 18:14 -->
<!-- CommandLine: -g -O /home/bliss/orgblogs/img/musichorn-1.svg /tmp/babel-4066v8b/abc-4066a6Y -->
<g transform="scale(0.750)" stroke-width="0.70" font-family="Times" font-size="20.00">
<text x="354.13" y="21.67" text-anchor="middle">法国号</text>
</g>
<g transform="scale(0.750)" stroke-width="0.70" font-family="Times" font-size="14.00" font-style="italic">
<text x="694.93" y="45.34" text-anchor="end">（法）莱茵河民歌</text>
<path stroke="currentColor" fill="none"
	d="M255.33 98.01v-24.00"/>
<path stroke="currentColor" fill="none"
	d="M429.73 98.01v-24.00"/>
<path stroke="currentColor" fill="none"
	d="M604.13 98.01v-24.00"/>
<path stroke="currentColor" fill="none"
	d="M694.93 98.01v-24.00"/>
<path stroke="currentColor" fill="none"
	d="M13.33 98.01h681.60m-681.60 -6h681.60m-681.60 -6h681.60m-681.60 -6h681.60m-681.60 -6h681.60"/>
</g>
<g transform="scale(0.750)" stroke-width="0.70" font-family="Times" font-size="13.00" font-weight="bold">
<text x="69.83" y="119.81">1=f   5</text>
<text x="146.23" y="119.81">3</text>
<text x="201.53" y="119.81">3</text>
<text x="265.33" y="119.81">5</text>
<text x="320.63" y="119.81">3</text>
<text x="375.93" y="119.81">3</text>
<text x="439.73" y="119.81">5</text>
<text x="495.03" y="119.81">3</text>
<text x="550.33" y="119.81">3</text>
<text x="614.13" y="119.81">4</text>
<text x="96.43" y="134.01">.</text>
<defs>
<path id="utclef" fill="currentColor" d="m-50 -90
	c-72 -41 -72 -158 52 -188
	c150 -10 220 188 90 256
	c-114 52 -275 0 -293 -136
	c-15 -181 93 -229 220 -334
	c88 -87 79 -133 62 -210
	c-51 33 -94 105 -89 186
	c17 267 36 374 49 574
	c6 96 -19 134 -77 135
	c-80 1 -126 -93 -61 -133
	c85 -41 133 101 31 105
	c23 17 92 37 90 -92
	c-10 -223 -39 -342 -50 -617
	c0 -90 0 -162 96 -232
	c56 72 63 230 22 289
	c-74 106 -257 168 -255 316
	c9 153 148 185 252 133
	c86 -65 29 -192 -80 -176
	c-71 12 -105 67 -59 124"/>
<use id="tclef" transform="scale(0.045)"
	xlink:href="#utclef"/>
</defs>
<use x="25.33" y="98.01" xlink:href="#tclef"/>
<defs>
<path id="uflat" fill="currentColor" d="
	m100 -746
	h32
	v734
	l-32 4
	m32 -332
	c46 -72 152 -90 208 -20
	c100 110 -120 326 -208 348
	m0 -28
	c54 0 200 -206 130 -290
	c-50 -60 -130 -4 -130 34"/>
<use id="ft0" transform="translate(-3.5,3.5) scale(0.018)"
	xlink:href="#uflat"/>
</defs>
<use x="40.33" y="86.01" xlink:href="#ft0"/>
<g font-family="serif" font-size="16" font-weight="bold" font-style="normal"
	transform="translate(56.33,98.01) scale(1.2,1)">
	<text y="-1" text-anchor="middle">4</text>
	<text y="-13" text-anchor="middle">3</text>
</g>
<defs>
<path id="hl" stroke="currentColor" d="m-6 0h12"/>
</defs>
<use x="100.53" y="104.01" xlink:href="#hl"/>
<defs>
<ellipse id="hd" rx="4.1" ry="2.9"
	transform="rotate(-20)" fill="currentColor"/>
</defs>
<use x="100.53" y="104.01" xlink:href="#hd"/>
<path d="M104.03 104.01v-20.00" stroke="currentColor" fill="none"/>
<use x="155.83" y="89.01" xlink:href="#hd"/>
<path d="M159.33 89.01v-20.00" stroke="currentColor" fill="none"/>
<use x="211.13" y="89.01" xlink:href="#hd"/>
<path d="M214.63 89.01v-20.00" stroke="currentColor" fill="none"/>
<use x="274.93" y="104.01" xlink:href="#hl"/>
<use x="274.93" y="104.01" xlink:href="#hd"/>
<path d="M278.43 104.01v-20.00" stroke="currentColor" fill="none"/>
<use x="330.23" y="89.01" xlink:href="#hd"/>
<path d="M333.73 89.01v-20.00" stroke="currentColor" fill="none"/>
<use x="385.53" y="89.01" xlink:href="#hd"/>
<path d="M389.03 89.01v-20.00" stroke="currentColor" fill="none"/>
<use x="449.33" y="89.01" xlink:href="#hd"/>
<path d="M452.83 89.01v-20.00" stroke="currentColor" fill="none"/>
<use x="504.63" y="92.01" xlink:href="#hd"/>
<path d="M508.13 92.01v-20.00" stroke="currentColor" fill="none"/>
<use x="559.93" y="89.01" xlink:href="#hd"/>
<path d="M563.43 89.01v-20.00" stroke="currentColor" fill="none"/>
<defs>
<path id="Hd" fill="currentColor" d="m3 -1.6
	c-1 -1.8 -7 1.4 -6 3.2
	c1 1.8 7 -1.4 6 -3.2
	m0.5 -0.3
	c2 3.8 -5 7.6 -7 3.8
	c-2 -3.8 5 -7.6 7 -3.8"/>
</defs>
<use x="623.73" y="86.01" xlink:href="#Hd"/>
<circle fill="currentColor" cx="632.73" cy="83.01" r="1.2"/>
<path d="M620.23 86.01v20.00" stroke="currentColor" fill="none"/>
<path stroke="currentColor" fill="none"
	d="M224.13 186.31v-24.00"/>
<path stroke="currentColor" fill="none"
	d="M410.93 186.31v-24.00"/>
<path stroke="currentColor" fill="none"
	d="M597.73 186.31v-24.00"/>
<path stroke="currentColor" fill="none"
	d="M694.93 186.31v-24.00"/>
<path stroke="currentColor" fill="none"
	d="M13.33 186.31h681.60m-681.60 -6h681.60m-681.60 -6h681.60m-681.60 -6h681.60m-681.60 -6h681.60"/>
<use x="25.33" y="186.31" xlink:href="#tclef"/>
<use x="40.33" y="174.31" xlink:href="#ft0"/>
<use x="58.33" y="192.31" xlink:href="#hl"/>
<use x="58.33" y="192.31" xlink:href="#hd"/>
<path d="M61.83 192.31v-20.00" stroke="currentColor" fill="none"/>
<use x="117.53" y="180.31" xlink:href="#hd"/>
<path d="M121.03 180.31v-20.00" stroke="currentColor" fill="none"/>
<use x="176.73" y="180.31" xlink:href="#hd"/>
<path d="M180.23 180.31v-20.00" stroke="currentColor" fill="none"/>
<use x="245.13" y="192.31" xlink:href="#hl"/>
<use x="245.13" y="192.31" xlink:href="#hd"/>
<path d="M248.63 192.31v-20.00" stroke="currentColor" fill="none"/>
<use x="304.33" y="180.31" xlink:href="#hd"/>
<path d="M307.83 180.31v-20.00" stroke="currentColor" fill="none"/>
<use x="363.53" y="180.31" xlink:href="#hd"/>
<path d="M367.03 180.31v-20.00" stroke="currentColor" fill="none"/>
<use x="431.83" y="180.31" xlink:href="#hd"/>
<path d="M435.33 180.31v-20.00" stroke="currentColor" fill="none"/>
<use x="491.13" y="180.31" xlink:href="#hd"/>
<path d="M494.63 180.31v-20.00" stroke="currentColor" fill="none"/>
<use x="550.33" y="180.31" xlink:href="#hd"/>
<path d="M553.83 180.31v-20.00" stroke="currentColor" fill="none"/>
<use x="618.63" y="177.31" xlink:href="#Hd"/>
<circle fill="currentColor" cx="627.63" cy="177.31" r="1.2"/>
<path d="M622.13 177.31v-20.00" stroke="currentColor" fill="none"/>
<path stroke="currentColor" fill="none"
	d="M224.13 256.31v-24.00"/>
<path stroke="currentColor" fill="none"
	d="M410.93 256.31v-24.00"/>
<path stroke="currentColor" fill="none"
	d="M597.73 256.31v-24.00"/>
<path stroke="currentColor" fill="none"
	d="M694.93 256.31v-24.00"/>
<path stroke="currentColor" fill="none"
	d="M13.33 256.31h681.60m-681.60 -6h681.60m-681.60 -6h681.60m-681.60 -6h681.60m-681.60 -6h681.60"/>
<use x="25.33" y="256.31" xlink:href="#tclef"/>
<use x="40.33" y="244.31" xlink:href="#ft0"/>
<use x="58.33" y="262.31" xlink:href="#hl"/>
<use x="58.33" y="262.31" xlink:href="#hd"/>
<path d="M61.83 262.31v-20.00" stroke="currentColor" fill="none"/>
<use x="117.53" y="247.31" xlink:href="#hd"/>
<path d="M121.03 247.31v-20.00" stroke="currentColor" fill="none"/>
<use x="176.73" y="247.31" xlink:href="#hd"/>
<path d="M180.23 247.31v-20.00" stroke="currentColor" fill="none"/>
<use x="245.13" y="262.31" xlink:href="#hl"/>
<use x="245.13" y="262.31" xlink:href="#hd"/>
<path d="M248.63 262.31v-20.00" stroke="currentColor" fill="none"/>
<use x="304.33" y="247.31" xlink:href="#hd"/>
<path d="M307.83 247.31v-20.00" stroke="currentColor" fill="none"/>
<use x="363.53" y="247.31" xlink:href="#hd"/>
<path d="M367.03 247.31v-20.00" stroke="currentColor" fill="none"/>
<use x="431.83" y="247.31" xlink:href="#hd"/>
<path d="M435.33 247.31v-20.00" stroke="currentColor" fill="none"/>
<use x="491.13" y="250.31" xlink:href="#hd"/>
<path d="M494.63 250.31v-20.00" stroke="currentColor" fill="none"/>
<use x="550.33" y="247.31" xlink:href="#hd"/>
<path d="M553.83 247.31v-20.00" stroke="currentColor" fill="none"/>
<use x="618.63" y="244.31" xlink:href="#Hd"/>
<circle fill="currentColor" cx="627.63" cy="241.31" r="1.2"/>
<path d="M615.13 244.31v20.00" stroke="currentColor" fill="none"/>
<path stroke="currentColor" fill="none"
	d="M221.23 326.31v-24.00"/>
<path stroke="currentColor" fill="none"
	d="M405.53 326.31v-24.00"/>
<path stroke="currentColor" fill="none"
	d="M595.83 326.31v-24.00"/>
<path stroke="currentColor" fill="none" stroke-width="3"
	d="M693.43 326.31v-24.00"/>
<path stroke="currentColor" fill="none"
	d="M688.93 326.31v-24.00"/>
<path stroke="currentColor" fill="none"
	d="M13.33 326.31h681.60m-681.60 -6h681.60m-681.60 -6h681.60m-681.60 -6h681.60m-681.60 -6h681.60"/>
<path fill="currentColor"
	d="M305.93 305.11c7.95 -3.67 44.36 -0.74 52.31 4.20
	l0.00 -0.25c-9.52 -6.69 -42.79 -9.62 -52.31 -3.95"/>
<path fill="currentColor"
	d="M487.23 322.31c8.46 5.80 47.89 12.52 56.35 9.60
	l0.00 0.26c-10.15 4.66 -46.20 -2.05 -56.35 -9.86"/>
<use x="25.33" y="326.31" xlink:href="#tclef"/>
<use x="40.33" y="314.31" xlink:href="#ft0"/>
<use x="58.33" y="314.31" xlink:href="#hd"/>
<path d="M54.83 314.31v20.00" stroke="currentColor" fill="none"/>
<use x="118.63" y="308.31" xlink:href="#hd"/>
<path d="M115.13 308.31v20.00" stroke="currentColor" fill="none"/>
<use x="173.03" y="320.31" xlink:href="#hd"/>
<path d="M176.53 320.31v-20.00" stroke="currentColor" fill="none"/>
<use x="242.63" y="317.31" xlink:href="#hd"/>
<path d="M246.13 317.31v-20.00" stroke="currentColor" fill="none"/>
<use x="302.93" y="311.31" xlink:href="#hd"/>
<path d="M299.43 311.31v20.00" stroke="currentColor" fill="none"/>
<use x="357.23" y="323.31" xlink:href="#hd"/>
<path d="M360.73 323.31v-20.00" stroke="currentColor" fill="none"/>
<use x="426.93" y="320.31" xlink:href="#hd"/>
<path d="M430.43 320.31v-20.00" stroke="currentColor" fill="none"/>
<use x="487.23" y="314.31" xlink:href="#hd"/>
<path d="M490.73 314.31v-20.00" stroke="currentColor" fill="none"/>
<use x="547.63" y="326.31" xlink:href="#hd"/>
<path d="M551.13 326.31v-20.00" stroke="currentColor" fill="none"/>
<use x="617.23" y="323.31" xlink:href="#Hd"/>
<circle fill="currentColor" cx="626.23" cy="323.31" r="1.2"/>
<path d="M620.73 323.31v-20.00" stroke="currentColor" fill="none"/>
</g>
</svg>
